# xmcd CD database file
#
# Track frame offsets:
#	150
#	2395
#	18399
#	35754
#	54388
#	72333
#	85340
#	104423
#	120862
#	142960
#	163963
#	180265
#	213354
#
# Disc length: 4440 seconds
#
# Revision: 0
# Processed by: cddbd v1.5.1PL0 Copyright (c) Steve Scherf et al.
# Submitted via: CDex 1.51
#
DISCID=a311560d
DTITLE=Borialis - What You Thought You Heard
DYEAR=2004
DGENRE=Rock
TTITLE0=Comin' Correct
TTITLE1=Inherited
TTITLE2=Why Oh Why
TTITLE3=Don't Mean A Thing
TTITLE4=Hourglass
TTITLE5=White Trash (Hip Rock)
TTITLE6=Toughen The Bones
TTITLE7=Some Things
TTITLE8=Can't Break This Man
TTITLE9=Insecurities
TTITLE10=Mightier Than The Sword
TTITLE11=Holocaust
TTITLE12=Untitled-13
EXTD=YEAR: 2004
EXTT0=
EXTT1=
EXTT2=
EXTT3=
EXTT4=
EXTT5=
EXTT6=
EXTT7=
EXTT8=
EXTT9=
EXTT10=
EXTT11=
EXTT12=
PLAYORDER=
